<svg width="26" height="23" viewBox="0 0 26 23" fill="none" xmlns="http://www.w3.org/2000/svg">
<path d="M10.9641 2.02525L6.1719 5.61044H1.79598C1.44749 5.61149 1.11364 5.75067 0.867601 5.99746C0.621559 6.24424 0.483397 6.57851 0.483398 6.927V16.0732C0.484449 16.421 0.623076 16.7543 0.869004 17.0002C1.11493 17.2461 1.44818 17.3847 1.79598 17.3858H6.17289L10.9651 20.971C11.1595 21.1197 11.3918 21.2108 11.6355 21.2339C11.8792 21.257 12.1245 21.2112 12.3434 21.1017C12.5624 20.9922 12.7461 20.8234 12.8738 20.6145C13.0014 20.4056 13.0678 20.1651 13.0654 19.9203V3.0789C13.0674 2.83416 13.0007 2.59378 12.873 2.385C12.7453 2.17622 12.5617 2.00741 12.3429 1.89771C12.1241 1.78801 11.879 1.74181 11.6353 1.76436C11.3916 1.7869 11.159 1.87728 10.9641 2.02525Z" fill="white"/>
<path d="M17.4019 4.16964C17.2597 4.02715 17.0909 3.91406 16.905 3.83683C16.7192 3.75959 16.5199 3.71971 16.3186 3.71948C16.1174 3.71925 15.918 3.75867 15.732 3.83548C15.5459 3.91229 15.3768 4.02499 15.2343 4.16715C15.0919 4.30931 14.9788 4.47814 14.9015 4.66401C14.8243 4.84987 14.7844 5.04913 14.7842 5.25041C14.7839 5.45168 14.8234 5.65103 14.9002 5.83708C14.977 6.02312 15.0897 6.19221 15.2318 6.3347C16.598 7.70169 17.3655 9.55525 17.3655 11.4879C17.3655 13.4206 16.598 15.2741 15.2318 16.6411C14.9478 16.93 14.7885 17.319 14.7885 17.7241C14.7885 18.1293 14.9478 18.5183 15.2318 18.8072C15.3734 18.9478 15.5414 19.0589 15.7263 19.134C15.9111 19.2091 16.109 19.2467 16.3085 19.2447C16.508 19.2426 16.7051 19.201 16.8883 19.1221C17.0716 19.0432 17.2374 18.9287 17.376 18.7853C18.3422 17.83 19.1097 16.6929 19.6344 15.4396C20.159 14.1863 20.4304 12.8415 20.4328 11.4828C20.4352 10.1242 20.1686 8.77843 19.6484 7.52326C19.1282 6.26809 18.3647 5.12831 17.4019 4.16964Z" fill="white"/>
<path d="M19.1049 0.735045C18.8211 1.02406 18.662 1.41297 18.662 1.81807C18.662 2.22317 18.8211 2.61208 19.1049 2.9011C20.2356 4.02961 21.1327 5.37004 21.7447 6.84564C22.3568 8.32125 22.6718 9.90307 22.6718 11.5006C22.6718 13.0981 22.3568 14.6799 21.7447 16.1555C21.1327 17.6311 20.2356 18.9715 19.1049 20.1C18.8929 20.3152 18.7487 20.5879 18.6903 20.8842C18.6318 21.1806 18.6617 21.4876 18.7761 21.7672C18.8905 22.0467 19.0845 22.2865 19.334 22.4568C19.5835 22.6271 19.8775 22.7205 20.1795 22.7252C20.5806 22.7263 20.966 22.5692 21.2521 22.288C22.6671 20.875 23.7896 19.1968 24.5556 17.3496C25.3215 15.5023 25.7157 13.5222 25.7157 11.5225C25.7157 9.52275 25.3215 7.54263 24.5556 5.69538C23.7896 3.84813 22.6671 2.16999 21.2521 0.756954C21.1139 0.612178 20.9481 0.496541 20.7645 0.416865C20.5809 0.33719 20.3832 0.295089 20.1831 0.293047C19.983 0.291005 19.7845 0.329063 19.5993 0.404975C19.4141 0.480888 19.246 0.593118 19.1049 0.735045Z" fill="white"/>
</svg>
