<svg width="27" height="18" viewBox="0 0 27 18" fill="none" xmlns="http://www.w3.org/2000/svg">
<path d="M10.5454 8.04396C11.2988 7.95215 11.9861 7.56845 12.4596 6.97531C12.9332 6.38217 13.1551 5.62694 13.0778 4.87191C13.1122 4.24567 13.0143 3.6192 12.7905 3.03329C12.5667 2.44739 12.2221 1.91517 11.779 1.47129C11.3359 1.0274 10.8043 0.681807 10.2188 0.45699C9.63327 0.232173 9.00698 0.133177 8.38067 0.166445H0V17.3632H7.86815C7.86815 17.3632 13.6528 17.2236 13.6528 12.1546C13.6518 12.1577 13.882 8.04396 10.5454 8.04396ZM8.37963 3.60517C8.37963 3.60517 9.45782 3.54997 9.45782 5.27194C9.45782 6.99391 8.86299 7.04287 8.08066 7.04287H3.43769V3.60517H8.37963ZM8.15775 13.9245H3.43769V9.62426H8.37963C8.37963 9.62426 10.1276 9.65552 10.1276 11.9556C10.1276 13.8755 8.88383 13.9235 8.15879 13.9235L8.15775 13.9245Z" fill="#104EFB"/>
<path d="M20.6845 4.72913C14.3029 4.72913 14.3081 11.0837 14.3081 11.0837C14.2373 11.9386 14.3536 12.7987 14.6491 13.604C14.9446 14.4094 15.4122 15.1406 16.0192 15.7468C16.6261 16.353 17.358 16.8195 18.1637 17.114C18.9695 17.4084 19.8297 17.5237 20.6845 17.4517C20.6845 17.4517 26.363 17.3611 26.363 13.0619H23.4461C23.4461 13.0619 23.4388 14.7495 20.6835 14.8088C20.3281 14.8645 19.9645 14.8357 19.6223 14.7248C19.2801 14.6139 18.9688 14.4239 18.7136 14.1704C18.4584 13.9168 18.2664 13.6067 18.1533 13.2652C18.0402 12.9237 18.0091 12.5603 18.0625 12.2045H26.6578C26.6578 12.2045 27.4026 4.72913 20.6845 4.72913ZM23.2743 9.62523H17.8219C17.9315 8.93075 18.2879 8.29908 18.8255 7.846C19.3632 7.39293 20.0461 7.14882 20.7491 7.15843C21.08 7.1415 21.4109 7.1932 21.7209 7.31028C22.0309 7.42735 22.3134 7.60727 22.5505 7.83874C22.7877 8.0702 22.9744 8.34821 23.0989 8.65529C23.2235 8.96237 23.2832 9.29189 23.2743 9.62315V9.62523Z" fill="#104EFB"/>
<path d="M24.0793 1.026H17.1997V3.60531H24.0793V1.026Z" fill="#104EFB"/>
</svg>
