<svg width="26" height="17" viewBox="0 0 26 17" fill="none" xmlns="http://www.w3.org/2000/svg">
<path d="M10.123 7.56803C10.8462 7.4799 11.506 7.11157 11.9606 6.54218C12.4152 5.9728 12.6282 5.24782 12.554 4.52304C12.587 3.92187 12.493 3.3205 12.2782 2.75806C12.0634 2.19562 11.7326 1.68472 11.3072 1.25862C10.8819 0.832512 10.3715 0.500757 9.80949 0.284945C9.24743 0.0691325 8.64622 -0.0258984 8.045 0.00603674H0V16.514H7.553C7.553 16.514 13.106 16.38 13.106 11.514C13.105 11.517 13.326 7.56803 10.123 7.56803ZM8.044 3.30703C8.044 3.30703 9.079 3.25404 9.079 4.90704C9.079 6.56004 8.508 6.60703 7.757 6.60703H3.3V3.30703H8.044ZM7.831 13.213H3.3V9.08503H8.044C8.044 9.08503 9.722 9.11504 9.722 11.323C9.722 13.166 8.528 13.212 7.832 13.212L7.831 13.213Z" fill="white"/>
<path d="M19.8562 4.38696C13.7302 4.38696 13.7352 10.487 13.7352 10.487C13.6672 11.3076 13.7788 12.1333 14.0625 12.9064C14.3462 13.6795 14.795 14.3814 15.3777 14.9633C15.9603 15.5452 16.6629 15.9931 17.4364 16.2758C18.2098 16.5584 19.0356 16.6691 19.8562 16.6C19.8562 16.6 25.3072 16.513 25.3072 12.386H22.5072C22.5072 12.386 22.5002 14.006 19.8552 14.063C19.514 14.1164 19.165 14.0888 18.8365 13.9823C18.508 13.8758 18.2091 13.6935 17.9642 13.45C17.7192 13.2066 17.535 12.909 17.4264 12.5811C17.3178 12.2533 17.2879 11.9045 17.3392 11.563H25.5902C25.5902 11.563 26.3052 4.38696 19.8562 4.38696ZM22.3422 9.08696H17.1082C17.2135 8.4203 17.5555 7.81392 18.0716 7.379C18.5877 6.94407 19.2433 6.70974 19.9182 6.71896C20.2359 6.70272 20.5535 6.75234 20.8511 6.86473C21.1487 6.97712 21.4198 7.14983 21.6474 7.37202C21.8751 7.59422 22.0543 7.86109 22.1739 8.15587C22.2934 8.45065 22.3507 8.76697 22.3422 9.08496V9.08696Z" fill="white"/>
<path d="M23.1147 0.831055H16.5107V3.30705H23.1147V0.831055Z" fill="white"/>
</svg>
