<svg width="26" height="25" viewBox="0 0 26 25" fill="none" xmlns="http://www.w3.org/2000/svg">
<path d="M20.0385 5.61472C20.7394 4.87684 21.2141 3.95352 21.4063 2.95415C19.7217 1.50899 17.6764 0.548378 15.4885 0.174836C13.3006 -0.198707 11.0524 0.0288445 8.98376 0.833203C11.3111 3.19439 13.2564 5.90377 14.7497 8.86386C16.7479 8.22117 18.562 7.1067 20.0385 5.61472Z" fill="#104EFB"/>
<path d="M21.1309 6.59211C19.5351 8.23175 17.5708 9.46644 15.4014 10.1934C15.6983 10.8434 15.9701 11.508 16.2275 12.1799C17.4728 11.9074 18.7435 11.7677 20.0183 11.7632C22.0086 11.7617 23.985 12.0938 25.8655 12.7456C25.8655 12.6622 25.878 12.5799 25.878 12.4956C25.8769 9.39545 24.7134 6.40843 22.6174 4.12427C22.2905 5.03658 21.7844 5.87426 21.1288 6.58794L21.1309 6.59211Z" fill="#104EFB"/>
<path d="M1.16418 9.86649C2.79505 10.1519 4.44735 10.2973 6.103 10.3009C8.54901 10.3048 10.9839 9.97142 13.3388 9.31021C11.8441 6.40398 9.88923 3.75859 7.54996 1.47644C5.94714 2.33648 4.54761 3.53057 3.44595 4.978C2.34429 6.42543 1.56618 8.09248 1.16418 9.86649Z" fill="#104EFB"/>
<path d="M25.7378 14.2596C23.9077 13.5773 21.9697 13.2301 20.0166 13.2345C18.9085 13.2357 17.8034 13.3473 16.7175 13.5679C17.8206 16.9034 18.4325 20.3817 18.5342 23.8935C20.4458 23.0196 22.1072 21.6794 23.3658 19.9961C24.6245 18.3128 25.4401 16.3403 25.7378 14.2596Z" fill="#104EFB"/>
<path d="M0.878906 12.4983C0.896342 14.3439 1.31844 16.1632 2.11544 17.8279C2.91244 19.4927 4.06494 20.9623 5.49166 22.1332C5.80913 20.1024 6.71077 18.2079 8.0866 16.6808C9.9073 14.715 12.2302 13.2836 14.8047 12.541C14.5568 11.9003 14.2838 11.2732 13.9994 10.6544C11.4345 11.401 8.77561 11.7757 6.1042 11.767C4.37286 11.7632 2.64499 11.6119 0.939326 11.3149C0.901824 11.7055 0.878906 12.0993 0.878906 12.4993L0.878906 12.4983Z" fill="#104EFB"/>
<path d="M9.1807 17.6538C7.80343 19.1498 6.98345 21.0745 6.8587 23.1041C8.36483 24.0498 10.0572 24.6597 11.8204 24.8922C13.5836 25.1246 15.3762 24.9742 17.0759 24.451C17.0281 20.8689 16.4272 17.3157 15.2946 13.9171C12.9526 14.5779 10.8377 15.8707 9.18175 17.6538H9.1807Z" fill="#104EFB"/>
</svg>
