<svg width="24" height="24" viewBox="0 0 24 24" fill="none" xmlns="http://www.w3.org/2000/svg">
<path d="M18.3923 5.38983C19.0651 4.68151 19.5207 3.79517 19.7053 2.83583C18.0882 1.44855 16.1247 0.526414 14.0245 0.167833C11.9242 -0.190748 9.76606 0.0276892 7.78027 0.79983C10.0144 3.06645 11.8818 5.6673 13.3153 8.50883C15.2335 7.89188 16.9749 6.82205 18.3923 5.38983Z" fill="white"/>
<path d="M19.4414 6.32883C17.9096 7.9028 16.0239 9.08804 13.9414 9.78584C14.2264 10.4098 14.4874 11.0478 14.7344 11.6928C15.9299 11.4312 17.1497 11.2971 18.3734 11.2928C20.284 11.2914 22.1812 11.6102 23.9864 12.2358C23.9864 12.1558 23.9984 12.0768 23.9984 11.9958C23.9973 9.01989 22.8805 6.15251 20.8684 3.95984C20.5546 4.83561 20.0688 5.63974 19.4394 6.32484L19.4414 6.32883Z" fill="white"/>
<path d="M0.274414 9.47282C1.83995 9.74685 3.42608 9.88636 5.01541 9.88982C7.36345 9.89356 9.70079 9.57355 11.9614 8.93882C10.5265 6.149 8.64999 3.60956 6.40441 1.41882C4.86579 2.24442 3.52232 3.39068 2.46479 4.78014C1.40726 6.16959 0.660304 7.76987 0.274414 9.47282Z" fill="white"/>
<path d="M23.8631 13.6868C22.1063 13.0319 20.246 12.6985 18.3711 12.7028C17.3074 12.7039 16.2465 12.8111 15.2041 13.0228C16.263 16.2248 16.8505 19.5637 16.9481 22.9348C18.7831 22.0959 20.3779 20.8094 21.5862 19.1936C22.7944 17.5777 23.5774 15.6841 23.8631 13.6868Z" fill="white"/>
<path d="M0 11.9988C0.0167378 13.7704 0.42193 15.5169 1.18701 17.1149C1.95208 18.713 3.05842 20.1238 4.428 21.2478C4.73275 19.2983 5.59828 17.4797 6.919 16.0138C8.66677 14.1267 10.8966 12.7526 13.368 12.0398C13.13 11.4248 12.868 10.8228 12.595 10.2288C10.1328 10.9455 7.58041 11.3051 5.016 11.2968C3.35401 11.2931 1.69535 11.1479 0.058 10.8628C0.022 11.2378 0 11.6158 0 11.9998L0 11.9988Z" fill="white"/>
<path d="M7.96923 16.9488C6.64712 18.3849 5.85998 20.2325 5.74023 22.1808C7.18604 23.0887 8.8106 23.6741 10.5032 23.8973C12.1957 24.1204 13.9165 23.976 15.5482 23.4738C15.5023 20.0352 14.9255 16.6243 13.8382 13.3618C11.59 13.9962 9.55988 15.2372 7.97023 16.9488H7.96923Z" fill="white"/>
</svg>
