<svg width="24" height="23" viewBox="0 0 24 23" fill="none" xmlns="http://www.w3.org/2000/svg">
<path d="M17.3082 0.0390625H6.79715C5.15267 0.041268 3.57618 0.695587 2.41344 1.85852C1.25071 3.02144 0.596656 4.59804 0.594727 6.24253L0.594727 16.7535C0.596656 18.398 1.25071 19.9746 2.41344 21.1376C3.57618 22.3005 5.15267 22.9548 6.79715 22.957H17.3082C18.953 22.9553 20.53 22.3013 21.6932 21.1383C22.8564 19.9753 23.5107 18.3984 23.5127 16.7535V6.24253C23.5107 4.59768 22.8564 3.02077 21.6932 1.85778C20.53 0.694793 18.953 0.0407167 17.3082 0.0390625V0.0390625ZM12.0537 17.765C10.8142 17.7653 9.60239 17.3979 8.57165 16.7094C7.5409 16.0209 6.73748 15.0422 6.26299 13.897C5.78849 12.7519 5.66424 11.4918 5.90593 10.276C6.14763 9.06029 6.74442 7.94351 7.62084 7.06695C8.49725 6.19039 9.61393 5.59341 10.8296 5.35151C12.0453 5.10961 13.3055 5.23366 14.4507 5.70797C15.5959 6.18227 16.5747 6.98553 17.2634 8.01616C17.9521 9.04679 18.3197 10.2585 18.3197 11.498C18.318 13.1595 17.6574 14.7524 16.4826 15.9273C15.3079 17.1022 13.7151 17.7631 12.0537 17.765ZM18.4697 6.7061C18.1034 6.7061 17.7452 6.59747 17.4407 6.39395C17.1361 6.19043 16.8987 5.90116 16.7585 5.56271C16.6183 5.22427 16.5816 4.85186 16.6531 4.49257C16.7245 4.13328 16.901 3.80325 17.16 3.54422C17.419 3.28519 17.749 3.10878 18.1083 3.03732C18.4676 2.96585 18.84 3.00253 19.1785 3.14272C19.5169 3.2829 19.8062 3.5203 20.0097 3.82489C20.2132 4.12948 20.3219 4.48759 20.3219 4.85391C20.3216 5.34506 20.1264 5.81601 19.7791 6.1633C19.4318 6.51059 18.9608 6.70582 18.4697 6.7061Z" fill="#104EFB"/>
<path d="M12.0526 6.5741C11.0789 6.5741 10.127 6.86282 9.31741 7.40379C8.5078 7.94476 7.87678 8.71366 7.50415 9.61326C7.13153 10.5129 7.03403 11.5027 7.22399 12.4578C7.41396 13.4128 7.88285 14.29 8.57137 14.9785C9.25989 15.667 10.1371 16.1359 11.0921 16.3259C12.0471 16.5158 13.037 16.4183 13.9366 16.0457C14.8362 15.6731 15.6051 15.0421 16.1461 14.2325C16.687 13.4228 16.9758 12.471 16.9758 11.4973C16.9744 10.192 16.4553 8.94056 15.5323 8.01758C14.6093 7.0946 13.3579 6.57548 12.0526 6.5741Z" fill="#104EFB"/>
<path d="M18.4696 4.34729C18.369 4.34729 18.2707 4.3771 18.1871 4.43296C18.1035 4.48882 18.0384 4.56822 17.9999 4.66111C17.9614 4.754 17.9513 4.85621 17.9709 4.95482C17.9906 5.05343 18.039 5.14402 18.1101 5.21512C18.1812 5.28621 18.2718 5.33463 18.3704 5.35424C18.469 5.37386 18.5712 5.36379 18.6641 5.32531C18.757 5.28684 18.8364 5.22168 18.8922 5.13808C18.9481 5.05448 18.9779 4.9562 18.9779 4.85565C18.9779 4.72082 18.9244 4.59152 18.829 4.49618C18.7337 4.40085 18.6044 4.34729 18.4696 4.34729Z" fill="#104EFB"/>
</svg>
