<svg width="21" height="21" viewBox="0 0 21 21" fill="none" xmlns="http://www.w3.org/2000/svg">
<path d="M4.7852 6.59302H0.657195C0.569143 6.59302 0.484698 6.62799 0.422436 6.69025C0.360174 6.75252 0.325195 6.83696 0.325195 6.92501V20.187C0.325195 20.2751 0.360174 20.3595 0.422436 20.4218C0.484698 20.484 0.569143 20.519 0.657195 20.519H4.7852C4.87325 20.519 4.95769 20.484 5.01995 20.4218C5.08222 20.3595 5.1172 20.2751 5.1172 20.187V6.92501C5.1172 6.83696 5.08222 6.75252 5.01995 6.69025C4.95769 6.62799 4.87325 6.59302 4.7852 6.59302Z" fill="white"/>
<path d="M2.722 0C2.1836 3.6333e-08 1.65729 0.159668 1.20964 0.458809C0.761983 0.757951 0.413098 1.18313 0.207105 1.68057C0.0011131 2.17801 -0.0527332 2.72536 0.0523769 3.2534C0.157487 3.78145 0.416832 4.26646 0.79761 4.6471C1.17839 5.02774 1.6635 5.2869 2.19158 5.39182C2.71966 5.49674 3.267 5.44269 3.76436 5.23651C4.26172 5.03034 4.68677 4.6813 4.98575 4.23353C5.28472 3.78577 5.4442 3.2594 5.444 2.721C5.44268 1.99958 5.15544 1.3081 4.64522 0.79807C4.13501 0.288041 3.44342 0.00105737 2.722 0Z" fill="white"/>
<path d="M15.285 6.26295C14.6076 6.24926 13.9348 6.37772 13.3101 6.64004C12.6854 6.90237 12.1226 7.29273 11.658 7.78595V6.92495C11.658 6.8369 11.623 6.75245 11.5608 6.69019C11.4985 6.62793 11.4141 6.59295 11.326 6.59295H7.37302C7.28496 6.59295 7.20051 6.62793 7.13825 6.69019C7.07599 6.75245 7.04102 6.8369 7.04102 6.92495V20.1869C7.04102 20.275 7.07599 20.3595 7.13825 20.4217C7.20051 20.484 7.28496 20.5189 7.37302 20.5189H11.492C11.5801 20.5189 11.6645 20.484 11.7268 20.4217C11.789 20.3595 11.824 20.275 11.824 20.1869V13.626C11.824 11.415 12.424 10.554 13.966 10.554C15.645 10.554 15.778 11.935 15.778 13.74V20.1879C15.778 20.276 15.813 20.3604 15.8753 20.4227C15.9375 20.485 16.022 20.5199 16.11 20.5199H20.231C20.3191 20.5199 20.4035 20.485 20.4658 20.4227C20.528 20.3604 20.563 20.276 20.563 20.1879V12.912C20.565 9.62395 19.934 6.26295 15.285 6.26295Z" fill="white"/>
</svg>
