<svg width="22" height="22" viewBox="0 0 22 22" fill="none" xmlns="http://www.w3.org/2000/svg">
<path d="M5.45908 6.95105H1.15884C1.06711 6.95105 0.979146 6.98748 0.914286 7.05234C0.849426 7.1172 0.812988 7.20517 0.812988 7.2969V21.1122C0.812988 21.204 0.849426 21.2919 0.914286 21.3568C0.979146 21.4217 1.06711 21.4581 1.15884 21.4581H5.45908C5.55081 21.4581 5.63877 21.4217 5.70364 21.3568C5.7685 21.2919 5.80493 21.204 5.80493 21.1122V7.2969C5.80493 7.20517 5.7685 7.1172 5.70364 7.05234C5.63877 6.98748 5.55081 6.95105 5.45908 6.95105Z" fill="#104EFB"/>
<path d="M3.3097 0.0820312C2.74883 0.0820313 2.20056 0.248361 1.73423 0.559984C1.2679 0.871607 0.904455 1.31453 0.689868 1.83272C0.475281 2.35091 0.419188 2.92111 0.528683 3.47118C0.638179 4.02126 0.908345 4.52651 1.30501 4.92303C1.70168 5.31955 2.20703 5.58953 2.75714 5.69882C3.30726 5.80812 3.87743 5.75181 4.39555 5.53704C4.91366 5.32226 5.35645 4.95865 5.6679 4.49221C5.97935 4.02576 6.14548 3.47743 6.14527 2.91656C6.14389 2.16504 5.84467 1.44471 5.31317 0.9134C4.78166 0.382091 4.06122 0.0831327 3.3097 0.0820312Z" fill="#104EFB"/>
<path d="M16.3971 6.60833C15.6914 6.59407 14.9905 6.72789 14.3397 7.00116C13.689 7.27443 13.1027 7.68107 12.6187 8.19487V7.29795C12.6187 7.20622 12.5823 7.11826 12.5174 7.0534C12.4526 6.98854 12.3646 6.9521 12.2729 6.9521H8.15494C8.06321 6.9521 7.97524 6.98854 7.91038 7.0534C7.84552 7.11826 7.80908 7.20622 7.80908 7.29795V21.1133C7.80908 21.205 7.84552 21.293 7.91038 21.3579C7.97524 21.4227 8.06321 21.4592 8.15494 21.4592H12.4458C12.5375 21.4592 12.6255 21.4227 12.6904 21.3579C12.7552 21.293 12.7916 21.205 12.7916 21.1133V14.2785C12.7916 11.9753 13.4167 11.0784 15.023 11.0784C16.7721 11.0784 16.9106 12.517 16.9106 14.3973V21.1143C16.9106 21.2061 16.9471 21.294 17.0119 21.3589C17.0768 21.4238 17.1648 21.4602 17.2565 21.4602H21.5494C21.6412 21.4602 21.7291 21.4238 21.794 21.3589C21.8588 21.294 21.8953 21.2061 21.8953 21.1143V13.5348C21.8974 10.1096 21.24 6.60833 16.3971 6.60833Z" fill="#104EFB"/>
</svg>
