<svg width="20" height="24" viewBox="0 0 20 24" fill="none" xmlns="http://www.w3.org/2000/svg">
<path d="M17.2302 2.4627C15.4869 0.842914 13.1831 -0.0372997 10.8038 0.00735121C9.43191 -0.0450065 8.06372 0.182751 6.78276 0.676722C5.50181 1.17069 4.33494 1.92052 3.35339 2.88043C1.78097 4.43908 0.879701 6.55038 0.841797 8.76409C0.841797 11.4309 1.95749 13.4779 3.8253 14.2394C3.94408 14.2893 4.07148 14.3155 4.20032 14.3165C4.39281 14.3158 4.57913 14.2485 4.72763 14.126C4.87613 14.0035 4.97765 13.8334 5.01495 13.6446C5.07849 13.4071 5.22329 12.8216 5.28788 12.5674C5.35623 12.379 5.36697 12.1744 5.31874 11.9798C5.27051 11.7852 5.16549 11.6094 5.01703 11.4747C4.46684 10.8074 4.18463 9.95925 4.22532 9.09536C4.21957 8.28681 4.37761 7.48546 4.68991 6.73964C5.00221 5.99381 5.46231 5.31895 6.04246 4.75574C6.62261 4.19252 7.31081 3.75262 8.06556 3.46255C8.8203 3.17248 9.62597 3.03824 10.434 3.06794C13.6342 3.06794 15.6218 4.88679 15.6218 7.81508C15.6635 9.49021 15.2777 11.1484 14.5009 12.6331C14.2552 13.1674 13.8717 13.6267 13.3899 13.9639C12.9081 14.3011 12.3452 14.504 11.7591 14.5519C11.4838 14.5585 11.2106 14.5025 10.9601 14.3881C10.7096 14.2737 10.4884 14.1039 10.3132 13.8915C10.1581 13.6886 10.0517 13.4528 10.0022 13.2023C9.9527 12.9517 9.96144 12.6932 10.0277 12.4466C10.1704 11.8424 10.3652 11.2132 10.5486 10.6038C10.9055 9.63844 11.1302 8.62922 11.2163 7.60361C11.2469 7.29901 11.213 6.99138 11.1167 6.70078C11.0205 6.41018 10.864 6.14314 10.6576 5.91707C10.4512 5.69099 10.1994 5.51097 9.91878 5.38873C9.63811 5.26649 9.33483 5.20479 9.02871 5.20764C7.36195 5.20764 6.05667 6.90044 6.05667 9.06202C6.05276 9.80083 6.19178 10.5334 6.46607 11.2194C6.25773 12.1091 5.00765 17.3979 4.77118 18.3948C4.63472 18.9772 3.80967 23.5753 5.17433 23.942C6.70775 24.3587 8.07762 19.8793 8.21721 19.3699C8.33076 18.9532 8.72557 17.4021 8.96829 16.4458C9.81642 17.2115 10.9175 17.637 12.0601 17.6406C13.1349 17.6423 14.1951 17.3927 15.1563 16.9118C16.1174 16.4308 16.9529 15.7319 17.5959 14.8707C19.0157 12.8937 19.7476 10.5054 19.6793 8.07238C19.6681 7.02088 19.4456 5.98237 19.0248 5.01865C18.6041 4.05494 17.9938 3.18571 17.2302 2.4627Z" fill="#104EFB"/>
</svg>
