<svg width="19" height="24" viewBox="0 0 19 24" fill="none" xmlns="http://www.w3.org/2000/svg">
<path d="M15.732 2.36406C14.0585 0.809152 11.847 -0.0358058 9.563 0.00705677C8.24605 -0.0432038 6.93266 0.175431 5.70301 0.649617C4.47336 1.1238 3.35323 1.84359 2.411 2.76506C0.901552 4.26128 0.0363855 6.28802 0 8.41306C0 10.9731 1.071 12.9381 2.864 13.6691C2.97803 13.717 3.10032 13.7421 3.224 13.7431C3.40878 13.7424 3.58764 13.6778 3.73019 13.5602C3.87275 13.4426 3.9702 13.2793 4.006 13.0981C4.067 12.8701 4.206 12.3081 4.268 12.0641C4.33361 11.8831 4.34392 11.6868 4.29763 11.5C4.25133 11.3132 4.15051 11.1444 4.008 11.0151C3.47985 10.3745 3.20894 9.56035 3.248 8.73106C3.24248 7.95489 3.39419 7.18565 3.69398 6.46969C3.99378 5.75374 4.43544 5.10591 4.99236 4.56525C5.54927 4.0246 6.2099 3.60231 6.93442 3.32386C7.65894 3.04541 8.43234 2.91655 9.208 2.94506C12.28 2.94506 14.188 4.69106 14.188 7.50206C14.228 9.1101 13.8577 10.7018 13.112 12.1271C12.8761 12.64 12.5081 13.0809 12.0455 13.4046C11.583 13.7283 11.0427 13.9231 10.48 13.9691C10.2157 13.9754 9.95348 13.9216 9.71303 13.8118C9.47258 13.702 9.26022 13.539 9.092 13.3351C8.94313 13.1403 8.841 12.9139 8.79349 12.6735C8.74598 12.433 8.75437 12.1848 8.818 11.9481C8.955 11.3681 9.142 10.7641 9.318 10.1791C9.66066 9.25239 9.87629 8.28359 9.959 7.29906C9.98839 7.00666 9.95581 6.71135 9.8634 6.43239C9.77098 6.15343 9.6208 5.89709 9.42265 5.68007C9.22451 5.46305 8.98284 5.29024 8.71342 5.17289C8.44399 5.05555 8.15286 4.99632 7.859 4.99906C6.259 4.99906 5.006 6.62406 5.006 8.69906C5.00225 9.40827 5.1357 10.1115 5.399 10.7701C5.199 11.6241 3.999 16.7011 3.772 17.6581C3.641 18.2171 2.849 22.6311 4.159 22.9831C5.631 23.3831 6.946 19.0831 7.08 18.5941C7.189 18.1941 7.568 16.7051 7.801 15.7871C8.61516 16.5221 9.67212 16.9306 10.769 16.9341C11.8007 16.9357 12.8185 16.6961 13.7412 16.2344C14.6638 15.7727 15.4658 15.1018 16.083 14.2751C17.446 12.3773 18.1486 10.0847 18.083 7.74906C18.0723 6.73967 17.8586 5.74276 17.4547 4.81764C17.0509 3.89252 16.465 3.05811 15.732 2.36406Z" fill="white"/>
</svg>
