<svg width="27" height="24" viewBox="0 0 27 24" fill="none" xmlns="http://www.w3.org/2000/svg">
<path d="M26.834 12.0606C26.7626 11.9374 26.6673 11.8296 26.5537 11.7436C26.4402 11.6577 26.3106 11.5953 26.1726 11.56C26.0346 11.5248 25.8909 11.5174 25.75 11.5384C25.6091 11.5594 25.4739 11.6082 25.3521 11.6822L21.7589 13.7626L20.8447 14.2984V19.2778L21.6962 19.7817C21.7281 19.7817 21.7281 19.8136 21.7589 19.8136L25.2894 21.8621C25.4621 21.9896 25.6723 22.0561 25.8869 22.0513C26.028 22.0525 26.1678 22.0256 26.2984 21.9722C26.4289 21.9188 26.5475 21.8399 26.6473 21.7401C26.747 21.6404 26.8259 21.5218 26.8794 21.3912C26.9328 21.2607 26.9597 21.1208 26.9585 20.9798V16.7602L26.9903 12.5994C27.0028 12.407 26.9475 12.2164 26.834 12.0606Z" fill="white"/>
<path d="M5.84562 10.451C6.85046 10.451 7.83271 10.153 8.6681 9.59455C9.50349 9.03616 10.1545 8.24251 10.5387 7.31403C10.9229 6.38556 11.0231 5.36398 10.8265 4.37856C10.63 3.39313 10.1456 2.48815 9.43456 1.77812C8.72355 1.06808 7.8179 0.584902 6.83221 0.389715C5.84652 0.194527 4.82508 0.296104 3.89713 0.681592C2.96919 1.06708 2.17643 1.71916 1.61918 2.55531C1.06193 3.39147 0.765227 4.37413 0.766606 5.37896C0.766475 6.04566 0.897808 6.70583 1.15309 7.32172C1.40838 7.9376 1.7826 8.4971 2.25435 8.9682C2.72609 9.4393 3.28611 9.81275 3.90234 10.0672C4.51857 10.3216 5.17893 10.4521 5.84562 10.451ZM5.84562 3.29557C6.25679 3.29636 6.65851 3.41896 7.00004 3.64791C7.34157 3.87685 7.6076 4.20186 7.76454 4.5819C7.92148 4.96194 7.96228 5.37997 7.8818 5.78318C7.80132 6.1864 7.60317 6.55672 7.31236 6.84739C7.02155 7.13806 6.65113 7.33604 6.24787 7.41633C5.84462 7.49662 5.42662 7.45561 5.04665 7.29849C4.66669 7.14137 4.3418 6.87518 4.11302 6.53354C3.88424 6.1919 3.76183 5.79013 3.76124 5.37896C3.75539 5.10372 3.80532 4.83015 3.90803 4.57473C4.01073 4.31931 4.16408 4.08732 4.35884 3.89275C4.5536 3.69818 4.78573 3.54505 5.04125 3.44259C5.29677 3.34012 5.57039 3.29045 5.84562 3.29656V3.29557Z" fill="white"/>
<path d="M18.7029 10.7362C17.8634 11.1655 16.935 11.3923 15.9921 11.3985C14.8268 11.4041 13.6859 11.0641 12.7137 10.4215H9.12053C8.14833 11.0641 7.00744 11.4041 5.84207 11.3985C4.89734 11.4076 3.96537 11.1799 3.13127 10.7362C2.76041 10.951 2.45199 11.2588 2.23647 11.6293C2.02095 11.9997 1.90578 12.4199 1.90234 12.8485V20.5397C1.90471 21.2162 2.17449 21.8643 2.65284 22.3427C3.1312 22.821 3.7793 23.0908 4.4558 23.0932H17.4103C18.0868 23.0908 18.7349 22.821 19.2132 22.3427C19.6916 21.8643 19.9614 21.2162 19.9637 20.5397V12.8485C19.9475 12.4189 19.8236 12.0003 19.6033 11.6312C19.3829 11.2621 19.0733 10.9544 18.7029 10.7362Z" fill="white"/>
<path d="M15.9921 10.4515C16.9966 10.4515 17.9786 10.1536 18.8139 9.59553C19.6491 9.03744 20.3001 8.2442 20.6845 7.31613C21.0689 6.38806 21.1695 5.36684 20.9735 4.38161C20.7776 3.39638 20.2938 2.49138 19.5835 1.78107C18.8732 1.07075 17.9682 0.587026 16.983 0.391051C15.9977 0.195076 14.9765 0.295658 14.0485 0.680077C13.1204 1.0645 12.3271 1.71549 11.7691 2.55073C11.211 3.38597 10.9131 4.36794 10.9131 5.37248C10.912 6.03976 11.0427 6.70069 11.2976 7.31738C11.5524 7.93406 11.9265 8.49439 12.3984 8.96623C12.8702 9.43807 13.4305 9.81214 14.0472 10.067C14.6639 10.3219 15.3248 10.4525 15.9921 10.4515ZM15.9921 3.29606C16.4036 3.29606 16.8058 3.41807 17.1479 3.64667C17.49 3.87527 17.7567 4.20018 17.9142 4.58032C18.0716 4.96047 18.1128 5.37877 18.0325 5.78233C17.9523 6.18589 17.7541 6.55658 17.4632 6.84753C17.1722 7.13848 16.8015 7.33662 16.398 7.41689C15.9944 7.49717 15.5761 7.45597 15.196 7.29851C14.8158 7.14105 14.4909 6.87439 14.2623 6.53227C14.0337 6.19015 13.9117 5.78793 13.9117 5.37646C13.9116 5.10327 13.9653 4.83273 14.0698 4.58032C14.1743 4.32791 14.3276 4.09858 14.5208 3.90545C14.714 3.71232 14.9434 3.55918 15.1959 3.45478C15.4484 3.35039 15.7189 3.29679 15.9921 3.29705V3.29606Z" fill="white"/>
</svg>
